<mxfile host="app.diagrams.net" modified="2020-11-19T01:59:35.932Z" agent="5.0 (Windows NT 10.0; Win64; x64) AppleWebKit/537.36 (KHTML, like Gecko) Chrome/86.0.4240.111 Safari/537.36" etag="7_lHpJkH-ah2A-NU9x8V" version="13.9.9" type="github">
  <diagram id="aptJ7YKvpDGFJuKJRdLv" name="Page-1">
    <mxGraphModel dx="1124" dy="610" grid="1" gridSize="10" guides="1" tooltips="1" connect="1" arrows="1" fold="1" page="1" pageScale="1" pageWidth="827" pageHeight="1169" math="0" shadow="0">
      <root>
        <mxCell id="0" />
        <mxCell id="1" parent="0" />
        <mxCell id="o8YfOcNx8l_yTNJHQc2i-1" value="auth_user" style="whiteSpace=wrap;html=1;aspect=fixed;" parent="1" vertex="1">
          <mxGeometry x="132" y="340" width="80" height="80" as="geometry" />
        </mxCell>
        <mxCell id="o8YfOcNx8l_yTNJHQc2i-2" value="survey_&lt;br&gt;cate_&lt;br&gt;form" style="whiteSpace=wrap;html=1;aspect=fixed;" parent="1" vertex="1">
          <mxGeometry x="340" y="140" width="80" height="80" as="geometry" />
        </mxCell>
        <mxCell id="o8YfOcNx8l_yTNJHQc2i-3" value="&lt;u&gt;tag_id&lt;/u&gt;" style="ellipse;whiteSpace=wrap;html=1;" parent="1" vertex="1">
          <mxGeometry x="253" y="570" width="80" height="40" as="geometry" />
        </mxCell>
        <mxCell id="o8YfOcNx8l_yTNJHQc2i-4" value="email" style="ellipse;whiteSpace=wrap;html=1;" parent="1" vertex="1">
          <mxGeometry x="152" y="490" width="80" height="40" as="geometry" />
        </mxCell>
        <mxCell id="o8YfOcNx8l_yTNJHQc2i-5" value="password" style="ellipse;whiteSpace=wrap;html=1;" parent="1" vertex="1">
          <mxGeometry x="32" y="430" width="80" height="40" as="geometry" />
        </mxCell>
        <mxCell id="o8YfOcNx8l_yTNJHQc2i-6" value="username" style="ellipse;whiteSpace=wrap;html=1;" parent="1" vertex="1">
          <mxGeometry x="152" y="230" width="80" height="40" as="geometry" />
        </mxCell>
        <mxCell id="o8YfOcNx8l_yTNJHQc2i-7" value="&lt;u&gt;id&lt;/u&gt;" style="ellipse;whiteSpace=wrap;html=1;" parent="1" vertex="1">
          <mxGeometry x="42" y="230" width="80" height="40" as="geometry" />
        </mxCell>
        <mxCell id="o8YfOcNx8l_yTNJHQc2i-11" value="" style="endArrow=none;html=1;entryX=0.5;entryY=1;entryDx=0;entryDy=0;exitX=0.75;exitY=0;exitDx=0;exitDy=0;" parent="1" source="o8YfOcNx8l_yTNJHQc2i-1" target="o8YfOcNx8l_yTNJHQc2i-6" edge="1">
          <mxGeometry width="50" height="50" relative="1" as="geometry">
            <mxPoint x="372" y="420" as="sourcePoint" />
            <mxPoint x="462" y="380" as="targetPoint" />
            <Array as="points" />
          </mxGeometry>
        </mxCell>
        <mxCell id="o8YfOcNx8l_yTNJHQc2i-12" value="" style="endArrow=none;html=1;entryX=0.5;entryY=1;entryDx=0;entryDy=0;exitX=0;exitY=0.25;exitDx=0;exitDy=0;" parent="1" source="o8YfOcNx8l_yTNJHQc2i-1" edge="1">
          <mxGeometry width="50" height="50" relative="1" as="geometry">
            <mxPoint x="92" y="340" as="sourcePoint" />
            <mxPoint x="92" y="270" as="targetPoint" />
            <Array as="points">
              <mxPoint x="92" y="360" />
            </Array>
          </mxGeometry>
        </mxCell>
        <mxCell id="o8YfOcNx8l_yTNJHQc2i-13" value="" style="endArrow=none;html=1;entryX=0.15;entryY=1.013;entryDx=0;entryDy=0;exitX=1;exitY=0.5;exitDx=0;exitDy=0;entryPerimeter=0;" parent="1" source="o8YfOcNx8l_yTNJHQc2i-5" target="o8YfOcNx8l_yTNJHQc2i-1" edge="1">
          <mxGeometry width="50" height="50" relative="1" as="geometry">
            <mxPoint x="132" y="490" as="sourcePoint" />
            <mxPoint x="132" y="420" as="targetPoint" />
            <Array as="points">
              <mxPoint x="144" y="450" />
            </Array>
          </mxGeometry>
        </mxCell>
        <mxCell id="o8YfOcNx8l_yTNJHQc2i-14" value="" style="endArrow=none;html=1;entryX=0.5;entryY=1;entryDx=0;entryDy=0;exitX=0.75;exitY=0;exitDx=0;exitDy=0;" parent="1" edge="1">
          <mxGeometry width="50" height="50" relative="1" as="geometry">
            <mxPoint x="191.5" y="490" as="sourcePoint" />
            <mxPoint x="191.5" y="420" as="targetPoint" />
            <Array as="points" />
          </mxGeometry>
        </mxCell>
        <mxCell id="o8YfOcNx8l_yTNJHQc2i-15" value="tag" style="ellipse;whiteSpace=wrap;html=1;" parent="1" vertex="1">
          <mxGeometry x="270" y="620" width="80" height="40" as="geometry" />
        </mxCell>
        <mxCell id="o8YfOcNx8l_yTNJHQc2i-16" value="img" style="ellipse;whiteSpace=wrap;html=1;" parent="1" vertex="1">
          <mxGeometry x="420" y="80" width="80" height="40" as="geometry" />
        </mxCell>
        <mxCell id="o8YfOcNx8l_yTNJHQc2i-17" value="cate" style="ellipse;whiteSpace=wrap;html=1;" parent="1" vertex="1">
          <mxGeometry x="230" y="180" width="80" height="40" as="geometry" />
        </mxCell>
        <mxCell id="o8YfOcNx8l_yTNJHQc2i-19" value="menu" style="ellipse;whiteSpace=wrap;html=1;" parent="1" vertex="1">
          <mxGeometry x="310" y="70" width="80" height="40" as="geometry" />
        </mxCell>
        <mxCell id="o8YfOcNx8l_yTNJHQc2i-18" value="fav_cate" style="whiteSpace=wrap;html=1;aspect=fixed;strokeColor=#000000;" vertex="1" parent="1">
          <mxGeometry x="520" y="210" width="80" height="80" as="geometry" />
        </mxCell>
        <mxCell id="o8YfOcNx8l_yTNJHQc2i-28" value="tag" style="ellipse;whiteSpace=wrap;html=1;" vertex="1" parent="1">
          <mxGeometry x="610" y="530" width="80" height="40" as="geometry" />
        </mxCell>
        <mxCell id="o8YfOcNx8l_yTNJHQc2i-29" value="&lt;u&gt;id&lt;/u&gt;" style="ellipse;whiteSpace=wrap;html=1;" vertex="1" parent="1">
          <mxGeometry x="310" y="270" width="80" height="40" as="geometry" />
        </mxCell>
        <mxCell id="o8YfOcNx8l_yTNJHQc2i-38" value="" style="edgeStyle=entityRelationEdgeStyle;fontSize=12;html=1;endArrow=ERzeroToOne;startArrow=ERmandOne;exitX=1;exitY=0.5;exitDx=0;exitDy=0;entryX=0;entryY=0.5;entryDx=0;entryDy=0;" edge="1" parent="1" target="o8YfOcNx8l_yTNJHQc2i-87">
          <mxGeometry width="100" height="100" relative="1" as="geometry">
            <mxPoint x="212" y="378" as="sourcePoint" />
            <mxPoint x="425" y="290" as="targetPoint" />
          </mxGeometry>
        </mxCell>
        <mxCell id="o8YfOcNx8l_yTNJHQc2i-39" value="survey_&lt;br&gt;tag_&lt;br&gt;form" style="whiteSpace=wrap;html=1;aspect=fixed;" vertex="1" parent="1">
          <mxGeometry x="350" y="540" width="80" height="80" as="geometry" />
        </mxCell>
        <mxCell id="o8YfOcNx8l_yTNJHQc2i-36" value="작성한다" style="rhombus;whiteSpace=wrap;html=1;strokeColor=#000000;" vertex="1" parent="1">
          <mxGeometry x="232" y="340" width="80" height="80" as="geometry" />
        </mxCell>
        <mxCell id="o8YfOcNx8l_yTNJHQc2i-47" value="Restaurant" style="whiteSpace=wrap;html=1;aspect=fixed;strokeColor=#000000;" vertex="1" parent="1">
          <mxGeometry x="870" y="340" width="80" height="80" as="geometry" />
        </mxCell>
        <mxCell id="o8YfOcNx8l_yTNJHQc2i-48" value="&lt;u&gt;cate_id&lt;/u&gt;" style="ellipse;whiteSpace=wrap;html=1;" vertex="1" parent="1">
          <mxGeometry x="232" y="110" width="80" height="40" as="geometry" />
        </mxCell>
        <mxCell id="o8YfOcNx8l_yTNJHQc2i-54" value="name" style="ellipse;whiteSpace=wrap;html=1;" vertex="1" parent="1">
          <mxGeometry x="770" y="210" width="80" height="40" as="geometry" />
        </mxCell>
        <mxCell id="o8YfOcNx8l_yTNJHQc2i-55" value="mp_rating" style="ellipse;whiteSpace=wrap;html=1;" vertex="1" parent="1">
          <mxGeometry x="900" y="150" width="80" height="40" as="geometry" />
        </mxCell>
        <mxCell id="o8YfOcNx8l_yTNJHQc2i-56" value="tt_rating" style="ellipse;whiteSpace=wrap;html=1;" vertex="1" parent="1">
          <mxGeometry x="850" y="190" width="80" height="40" as="geometry" />
        </mxCell>
        <mxCell id="o8YfOcNx8l_yTNJHQc2i-57" value="dc_rating" style="ellipse;whiteSpace=wrap;html=1;" vertex="1" parent="1">
          <mxGeometry x="970" y="200" width="80" height="40" as="geometry" />
        </mxCell>
        <mxCell id="o8YfOcNx8l_yTNJHQc2i-58" value="ss_rating" style="ellipse;whiteSpace=wrap;html=1;" vertex="1" parent="1">
          <mxGeometry x="980" y="260" width="80" height="40" as="geometry" />
        </mxCell>
        <mxCell id="o8YfOcNx8l_yTNJHQc2i-60" value="tag" style="ellipse;whiteSpace=wrap;html=1;" vertex="1" parent="1">
          <mxGeometry x="800" y="472" width="80" height="40" as="geometry" />
        </mxCell>
        <mxCell id="o8YfOcNx8l_yTNJHQc2i-61" value="lat" style="ellipse;whiteSpace=wrap;html=1;" vertex="1" parent="1">
          <mxGeometry x="980" y="440" width="80" height="40" as="geometry" />
        </mxCell>
        <mxCell id="o8YfOcNx8l_yTNJHQc2i-62" value="lon" style="ellipse;whiteSpace=wrap;html=1;" vertex="1" parent="1">
          <mxGeometry x="990" y="390" width="80" height="40" as="geometry" />
        </mxCell>
        <mxCell id="o8YfOcNx8l_yTNJHQc2i-63" value="adr" style="ellipse;whiteSpace=wrap;html=1;" vertex="1" parent="1">
          <mxGeometry x="990" y="330" width="80" height="40" as="geometry" />
        </mxCell>
        <mxCell id="o8YfOcNx8l_yTNJHQc2i-65" value="cate" style="ellipse;whiteSpace=wrap;html=1;" vertex="1" parent="1">
          <mxGeometry x="950" y="490" width="80" height="40" as="geometry" />
        </mxCell>
        <mxCell id="o8YfOcNx8l_yTNJHQc2i-66" value="menu" style="ellipse;whiteSpace=wrap;html=1;" vertex="1" parent="1">
          <mxGeometry x="860" y="512" width="80" height="40" as="geometry" />
        </mxCell>
        <mxCell id="o8YfOcNx8l_yTNJHQc2i-67" value="img" style="ellipse;whiteSpace=wrap;html=1;" vertex="1" parent="1">
          <mxGeometry x="750" y="430" width="80" height="40" as="geometry" />
        </mxCell>
        <mxCell id="o8YfOcNx8l_yTNJHQc2i-68" value="" style="endArrow=none;html=1;exitX=0.25;exitY=0;exitDx=0;exitDy=0;entryX=1;entryY=1;entryDx=0;entryDy=0;" edge="1" parent="1" source="o8YfOcNx8l_yTNJHQc2i-47" target="o8YfOcNx8l_yTNJHQc2i-54">
          <mxGeometry width="50" height="50" relative="1" as="geometry">
            <mxPoint x="900" y="340" as="sourcePoint" />
            <mxPoint x="840" y="220" as="targetPoint" />
            <Array as="points" />
          </mxGeometry>
        </mxCell>
        <mxCell id="o8YfOcNx8l_yTNJHQc2i-69" value="" style="endArrow=none;html=1;entryX=0.669;entryY=0.992;entryDx=0;entryDy=0;entryPerimeter=0;exitX=0.377;exitY=0.021;exitDx=0;exitDy=0;exitPerimeter=0;" edge="1" parent="1" source="o8YfOcNx8l_yTNJHQc2i-47" target="o8YfOcNx8l_yTNJHQc2i-56">
          <mxGeometry width="50" height="50" relative="1" as="geometry">
            <mxPoint x="875" y="340" as="sourcePoint" />
            <mxPoint x="925" y="290" as="targetPoint" />
            <Array as="points">
              <mxPoint x="900" y="270" />
            </Array>
          </mxGeometry>
        </mxCell>
        <mxCell id="o8YfOcNx8l_yTNJHQc2i-70" value="" style="endArrow=none;html=1;entryX=0.5;entryY=1;entryDx=0;entryDy=0;exitX=0.5;exitY=0;exitDx=0;exitDy=0;" edge="1" parent="1" source="o8YfOcNx8l_yTNJHQc2i-47" target="o8YfOcNx8l_yTNJHQc2i-55">
          <mxGeometry width="50" height="50" relative="1" as="geometry">
            <mxPoint x="910.0000000000002" y="340" as="sourcePoint" />
            <mxPoint x="960.0000000000002" y="290" as="targetPoint" />
          </mxGeometry>
        </mxCell>
        <mxCell id="o8YfOcNx8l_yTNJHQc2i-71" value="" style="endArrow=none;html=1;entryX=0;entryY=1;entryDx=0;entryDy=0;exitX=0.75;exitY=0;exitDx=0;exitDy=0;" edge="1" parent="1" source="o8YfOcNx8l_yTNJHQc2i-47" target="o8YfOcNx8l_yTNJHQc2i-57">
          <mxGeometry width="50" height="50" relative="1" as="geometry">
            <mxPoint x="910.0000000000002" y="285" as="sourcePoint" />
            <mxPoint x="960.0000000000002" y="235" as="targetPoint" />
            <Array as="points">
              <mxPoint x="960" y="260" />
            </Array>
          </mxGeometry>
        </mxCell>
        <mxCell id="o8YfOcNx8l_yTNJHQc2i-72" value="" style="endArrow=none;html=1;exitX=0.908;exitY=-0.004;exitDx=0;exitDy=0;exitPerimeter=0;" edge="1" parent="1" source="o8YfOcNx8l_yTNJHQc2i-47">
          <mxGeometry width="50" height="50" relative="1" as="geometry">
            <mxPoint x="930.0000000000002" y="330" as="sourcePoint" />
            <mxPoint x="980.0000000000002" y="280" as="targetPoint" />
          </mxGeometry>
        </mxCell>
        <mxCell id="o8YfOcNx8l_yTNJHQc2i-73" value="" style="endArrow=none;html=1;exitX=1;exitY=0.25;exitDx=0;exitDy=0;entryX=0;entryY=0.5;entryDx=0;entryDy=0;" edge="1" parent="1" source="o8YfOcNx8l_yTNJHQc2i-47" target="o8YfOcNx8l_yTNJHQc2i-63">
          <mxGeometry width="50" height="50" relative="1" as="geometry">
            <mxPoint x="940.0000000000002" y="400" as="sourcePoint" />
            <mxPoint x="990.0000000000002" y="350" as="targetPoint" />
          </mxGeometry>
        </mxCell>
        <mxCell id="o8YfOcNx8l_yTNJHQc2i-74" value="" style="endArrow=none;html=1;exitX=1;exitY=1;exitDx=0;exitDy=0;entryX=0;entryY=0.5;entryDx=0;entryDy=0;" edge="1" parent="1" source="o8YfOcNx8l_yTNJHQc2i-47" target="o8YfOcNx8l_yTNJHQc2i-61">
          <mxGeometry width="50" height="50" relative="1" as="geometry">
            <mxPoint x="920.0000000000002" y="512" as="sourcePoint" />
            <mxPoint x="970.0000000000002" y="462" as="targetPoint" />
          </mxGeometry>
        </mxCell>
        <mxCell id="o8YfOcNx8l_yTNJHQc2i-75" value="" style="endArrow=none;html=1;exitX=1.023;exitY=0.819;exitDx=0;exitDy=0;exitPerimeter=0;" edge="1" parent="1" source="o8YfOcNx8l_yTNJHQc2i-47">
          <mxGeometry width="50" height="50" relative="1" as="geometry">
            <mxPoint x="940.0000000000002" y="455" as="sourcePoint" />
            <mxPoint x="990.0000000000002" y="405" as="targetPoint" />
          </mxGeometry>
        </mxCell>
        <mxCell id="o8YfOcNx8l_yTNJHQc2i-76" value="" style="endArrow=none;html=1;exitX=0;exitY=0;exitDx=0;exitDy=0;entryX=0.75;entryY=1;entryDx=0;entryDy=0;" edge="1" parent="1" source="o8YfOcNx8l_yTNJHQc2i-65" target="o8YfOcNx8l_yTNJHQc2i-47">
          <mxGeometry width="50" height="50" relative="1" as="geometry">
            <mxPoint x="875.0000000000002" y="470" as="sourcePoint" />
            <mxPoint x="925.0000000000002" y="420" as="targetPoint" />
          </mxGeometry>
        </mxCell>
        <mxCell id="o8YfOcNx8l_yTNJHQc2i-77" value="" style="endArrow=none;html=1;entryX=0.5;entryY=1;entryDx=0;entryDy=0;exitX=0.5;exitY=0;exitDx=0;exitDy=0;" edge="1" parent="1" source="o8YfOcNx8l_yTNJHQc2i-66" target="o8YfOcNx8l_yTNJHQc2i-47">
          <mxGeometry width="50" height="50" relative="1" as="geometry">
            <mxPoint x="890.0000000000002" y="512" as="sourcePoint" />
            <mxPoint x="940.0000000000002" y="462" as="targetPoint" />
          </mxGeometry>
        </mxCell>
        <mxCell id="o8YfOcNx8l_yTNJHQc2i-78" value="" style="endArrow=none;html=1;entryX=0.25;entryY=1;entryDx=0;entryDy=0;exitX=1;exitY=0;exitDx=0;exitDy=0;" edge="1" parent="1" source="o8YfOcNx8l_yTNJHQc2i-60" target="o8YfOcNx8l_yTNJHQc2i-47">
          <mxGeometry width="50" height="50" relative="1" as="geometry">
            <mxPoint x="840.0000000000002" y="480" as="sourcePoint" />
            <mxPoint x="890.0000000000002" y="430" as="targetPoint" />
          </mxGeometry>
        </mxCell>
        <mxCell id="o8YfOcNx8l_yTNJHQc2i-79" value="" style="endArrow=none;html=1;entryX=0;entryY=0.875;entryDx=0;entryDy=0;exitX=1;exitY=0.5;exitDx=0;exitDy=0;entryPerimeter=0;" edge="1" parent="1" source="o8YfOcNx8l_yTNJHQc2i-67" target="o8YfOcNx8l_yTNJHQc2i-47">
          <mxGeometry width="50" height="50" relative="1" as="geometry">
            <mxPoint x="848.2842712474617" y="458.92786437626916" as="sourcePoint" />
            <mxPoint x="870" y="401.07" as="targetPoint" />
          </mxGeometry>
        </mxCell>
        <mxCell id="o8YfOcNx8l_yTNJHQc2i-84" value="&lt;u&gt;rest_id&lt;/u&gt;" style="ellipse;whiteSpace=wrap;html=1;" vertex="1" parent="1">
          <mxGeometry x="747" y="260" width="80" height="40" as="geometry" />
        </mxCell>
        <mxCell id="o8YfOcNx8l_yTNJHQc2i-87" value="Survey_&lt;br&gt;outcome" style="whiteSpace=wrap;html=1;aspect=fixed;strokeColor=#000000;" vertex="1" parent="1">
          <mxGeometry x="340" y="340" width="80" height="80" as="geometry" />
        </mxCell>
        <mxCell id="o8YfOcNx8l_yTNJHQc2i-90" value="fav_tag" style="whiteSpace=wrap;html=1;aspect=fixed;strokeColor=#000000;" vertex="1" parent="1">
          <mxGeometry x="520" y="430" width="80" height="80" as="geometry" />
        </mxCell>
        <mxCell id="o8YfOcNx8l_yTNJHQc2i-92" value="" style="edgeStyle=entityRelationEdgeStyle;fontSize=12;html=1;endArrow=ERoneToMany;startArrow=ERmandOne;entryX=0;entryY=0.5;entryDx=0;entryDy=0;exitX=1.023;exitY=0.106;exitDx=0;exitDy=0;exitPerimeter=0;" edge="1" parent="1" source="o8YfOcNx8l_yTNJHQc2i-87" target="o8YfOcNx8l_yTNJHQc2i-18">
          <mxGeometry width="100" height="100" relative="1" as="geometry">
            <mxPoint x="370" y="260" as="sourcePoint" />
            <mxPoint x="460" y="220" as="targetPoint" />
          </mxGeometry>
        </mxCell>
        <mxCell id="o8YfOcNx8l_yTNJHQc2i-93" value="" style="edgeStyle=entityRelationEdgeStyle;fontSize=12;html=1;endArrow=ERoneToMany;startArrow=ERmandOne;" edge="1" parent="1" target="o8YfOcNx8l_yTNJHQc2i-90">
          <mxGeometry width="100" height="100" relative="1" as="geometry">
            <mxPoint x="420" y="410" as="sourcePoint" />
            <mxPoint x="488.16" y="311.51999999999975" as="targetPoint" />
          </mxGeometry>
        </mxCell>
        <mxCell id="o8YfOcNx8l_yTNJHQc2i-24" value="속한다" style="rhombus;whiteSpace=wrap;html=1;strokeColor=#000000;" vertex="1" parent="1">
          <mxGeometry x="430" y="260" width="80" height="80" as="geometry" />
        </mxCell>
        <mxCell id="o8YfOcNx8l_yTNJHQc2i-42" value="속한다" style="rhombus;whiteSpace=wrap;html=1;strokeColor=#000000;" vertex="1" parent="1">
          <mxGeometry x="430" y="400" width="80" height="80" as="geometry" />
        </mxCell>
        <mxCell id="o8YfOcNx8l_yTNJHQc2i-95" value="" style="endArrow=none;html=1;exitX=1;exitY=0.5;exitDx=0;exitDy=0;entryX=0.5;entryY=1;entryDx=0;entryDy=0;" edge="1" parent="1" source="o8YfOcNx8l_yTNJHQc2i-15" target="o8YfOcNx8l_yTNJHQc2i-39">
          <mxGeometry width="50" height="50" relative="1" as="geometry">
            <mxPoint x="380" y="660" as="sourcePoint" />
            <mxPoint x="430" y="610" as="targetPoint" />
            <Array as="points">
              <mxPoint x="390" y="640" />
            </Array>
          </mxGeometry>
        </mxCell>
        <mxCell id="o8YfOcNx8l_yTNJHQc2i-96" value="" style="endArrow=none;html=1;entryX=0.004;entryY=0.606;entryDx=0;entryDy=0;entryPerimeter=0;exitX=1;exitY=0.5;exitDx=0;exitDy=0;" edge="1" parent="1" source="o8YfOcNx8l_yTNJHQc2i-3" target="o8YfOcNx8l_yTNJHQc2i-39">
          <mxGeometry width="50" height="50" relative="1" as="geometry">
            <mxPoint x="350" y="540" as="sourcePoint" />
            <mxPoint x="400" y="490" as="targetPoint" />
            <Array as="points" />
          </mxGeometry>
        </mxCell>
        <mxCell id="o8YfOcNx8l_yTNJHQc2i-97" value="" style="edgeStyle=entityRelationEdgeStyle;fontSize=12;html=1;endArrow=ERmandOne;startArrow=ERmandOne;exitX=1;exitY=0.5;exitDx=0;exitDy=0;" edge="1" parent="1" source="o8YfOcNx8l_yTNJHQc2i-39">
          <mxGeometry width="100" height="100" relative="1" as="geometry">
            <mxPoint x="480" y="650" as="sourcePoint" />
            <mxPoint x="518" y="498" as="targetPoint" />
          </mxGeometry>
        </mxCell>
        <mxCell id="o8YfOcNx8l_yTNJHQc2i-99" value="속한다" style="rhombus;whiteSpace=wrap;html=1;strokeColor=#000000;" vertex="1" parent="1">
          <mxGeometry x="440" y="490" width="80" height="80" as="geometry" />
        </mxCell>
        <mxCell id="o8YfOcNx8l_yTNJHQc2i-100" value="" style="edgeStyle=entityRelationEdgeStyle;fontSize=12;html=1;endArrow=ERmandOne;startArrow=ERmandOne;exitX=0.992;exitY=0.667;exitDx=0;exitDy=0;entryX=0;entryY=0.25;entryDx=0;entryDy=0;exitPerimeter=0;" edge="1" parent="1" source="o8YfOcNx8l_yTNJHQc2i-2" target="o8YfOcNx8l_yTNJHQc2i-18">
          <mxGeometry width="100" height="100" relative="1" as="geometry">
            <mxPoint x="420" y="201" as="sourcePoint" />
            <mxPoint x="508" y="119" as="targetPoint" />
          </mxGeometry>
        </mxCell>
        <mxCell id="o8YfOcNx8l_yTNJHQc2i-101" value="속한다" style="rhombus;whiteSpace=wrap;html=1;strokeColor=#000000;" vertex="1" parent="1">
          <mxGeometry x="430" y="170" width="80" height="80" as="geometry" />
        </mxCell>
        <mxCell id="o8YfOcNx8l_yTNJHQc2i-103" value="" style="endArrow=none;html=1;exitX=0.977;exitY=0.688;exitDx=0;exitDy=0;exitPerimeter=0;" edge="1" parent="1" source="o8YfOcNx8l_yTNJHQc2i-48">
          <mxGeometry width="50" height="50" relative="1" as="geometry">
            <mxPoint x="350" y="290" as="sourcePoint" />
            <mxPoint x="340" y="170" as="targetPoint" />
          </mxGeometry>
        </mxCell>
        <mxCell id="o8YfOcNx8l_yTNJHQc2i-104" value="" style="endArrow=none;html=1;exitX=0.96;exitY=0.688;exitDx=0;exitDy=0;exitPerimeter=0;" edge="1" parent="1" source="o8YfOcNx8l_yTNJHQc2i-17" target="o8YfOcNx8l_yTNJHQc2i-2">
          <mxGeometry width="50" height="50" relative="1" as="geometry">
            <mxPoint x="285" y="260" as="sourcePoint" />
            <mxPoint x="335" y="210" as="targetPoint" />
          </mxGeometry>
        </mxCell>
        <mxCell id="o8YfOcNx8l_yTNJHQc2i-105" value="" style="endArrow=none;html=1;entryX=0.273;entryY=1;entryDx=0;entryDy=0;entryPerimeter=0;exitX=1;exitY=0.25;exitDx=0;exitDy=0;" edge="1" parent="1" source="o8YfOcNx8l_yTNJHQc2i-2" target="o8YfOcNx8l_yTNJHQc2i-16">
          <mxGeometry width="50" height="50" relative="1" as="geometry">
            <mxPoint x="389" y="180" as="sourcePoint" />
            <mxPoint x="439" y="130" as="targetPoint" />
          </mxGeometry>
        </mxCell>
        <mxCell id="o8YfOcNx8l_yTNJHQc2i-106" value="" style="endArrow=none;html=1;entryX=0.69;entryY=0.979;entryDx=0;entryDy=0;entryPerimeter=0;" edge="1" parent="1" source="o8YfOcNx8l_yTNJHQc2i-2" target="o8YfOcNx8l_yTNJHQc2i-19">
          <mxGeometry width="50" height="50" relative="1" as="geometry">
            <mxPoint x="350" y="290" as="sourcePoint" />
            <mxPoint x="400" y="240" as="targetPoint" />
          </mxGeometry>
        </mxCell>
        <mxCell id="o8YfOcNx8l_yTNJHQc2i-107" value="" style="endArrow=none;html=1;entryX=0.585;entryY=0.979;entryDx=0;entryDy=0;entryPerimeter=0;exitX=0.44;exitY=0.01;exitDx=0;exitDy=0;exitPerimeter=0;" edge="1" parent="1" source="o8YfOcNx8l_yTNJHQc2i-87" target="o8YfOcNx8l_yTNJHQc2i-29">
          <mxGeometry width="50" height="50" relative="1" as="geometry">
            <mxPoint x="310" y="360" as="sourcePoint" />
            <mxPoint x="360" y="310" as="targetPoint" />
          </mxGeometry>
        </mxCell>
        <mxCell id="o8YfOcNx8l_yTNJHQc2i-108" value="" style="endArrow=none;html=1;entryX=0.25;entryY=1;entryDx=0;entryDy=0;exitX=0.788;exitY=0.083;exitDx=0;exitDy=0;exitPerimeter=0;" edge="1" parent="1" source="o8YfOcNx8l_yTNJHQc2i-110" target="o8YfOcNx8l_yTNJHQc2i-87">
          <mxGeometry width="50" height="50" relative="1" as="geometry">
            <mxPoint x="330" y="460" as="sourcePoint" />
            <mxPoint x="362" y="430" as="targetPoint" />
          </mxGeometry>
        </mxCell>
        <mxCell id="o8YfOcNx8l_yTNJHQc2i-110" value="all_cate" style="ellipse;whiteSpace=wrap;html=1;" vertex="1" parent="1">
          <mxGeometry x="253" y="450" width="80" height="40" as="geometry" />
        </mxCell>
        <mxCell id="o8YfOcNx8l_yTNJHQc2i-111" value="all_tag" style="ellipse;whiteSpace=wrap;html=1;" vertex="1" parent="1">
          <mxGeometry x="340" y="460" width="80" height="40" as="geometry" />
        </mxCell>
        <mxCell id="o8YfOcNx8l_yTNJHQc2i-112" value="" style="endArrow=none;html=1;entryX=0.617;entryY=1.01;entryDx=0;entryDy=0;entryPerimeter=0;exitX=0.606;exitY=-0.021;exitDx=0;exitDy=0;exitPerimeter=0;" edge="1" parent="1" source="o8YfOcNx8l_yTNJHQc2i-111" target="o8YfOcNx8l_yTNJHQc2i-87">
          <mxGeometry width="50" height="50" relative="1" as="geometry">
            <mxPoint x="340" y="480" as="sourcePoint" />
            <mxPoint x="390" y="430" as="targetPoint" />
          </mxGeometry>
        </mxCell>
        <mxCell id="o8YfOcNx8l_yTNJHQc2i-113" value="&lt;u&gt;id&lt;/u&gt;" style="ellipse;whiteSpace=wrap;html=1;" vertex="1" parent="1">
          <mxGeometry x="510" y="140" width="80" height="40" as="geometry" />
        </mxCell>
        <mxCell id="o8YfOcNx8l_yTNJHQc2i-114" value="&lt;u&gt;id&lt;/u&gt;" style="ellipse;whiteSpace=wrap;html=1;" vertex="1" parent="1">
          <mxGeometry x="520" y="550" width="80" height="40" as="geometry" />
        </mxCell>
        <mxCell id="o8YfOcNx8l_yTNJHQc2i-115" value="cate" style="ellipse;whiteSpace=wrap;html=1;" vertex="1" parent="1">
          <mxGeometry x="600" y="160" width="80" height="40" as="geometry" />
        </mxCell>
        <mxCell id="o8YfOcNx8l_yTNJHQc2i-117" value="" style="endArrow=none;html=1;exitX=1.002;exitY=0.688;exitDx=0;exitDy=0;exitPerimeter=0;" edge="1" parent="1" source="o8YfOcNx8l_yTNJHQc2i-84" target="o8YfOcNx8l_yTNJHQc2i-47">
          <mxGeometry width="50" height="50" relative="1" as="geometry">
            <mxPoint x="800" y="360" as="sourcePoint" />
            <mxPoint x="850" y="310" as="targetPoint" />
          </mxGeometry>
        </mxCell>
        <mxCell id="o8YfOcNx8l_yTNJHQc2i-118" value="" style="edgeStyle=entityRelationEdgeStyle;fontSize=12;html=1;endArrow=ERoneToMany;startArrow=ERmandOne;entryX=-0.029;entryY=0.188;entryDx=0;entryDy=0;exitX=1;exitY=0.5;exitDx=0;exitDy=0;entryPerimeter=0;" edge="1" parent="1" source="o8YfOcNx8l_yTNJHQc2i-18" target="o8YfOcNx8l_yTNJHQc2i-47">
          <mxGeometry width="100" height="100" relative="1" as="geometry">
            <mxPoint x="620.0000000000001" y="388.48" as="sourcePoint" />
            <mxPoint x="718.16" y="290" as="targetPoint" />
          </mxGeometry>
        </mxCell>
        <mxCell id="o8YfOcNx8l_yTNJHQc2i-80" value="추천한다" style="rhombus;whiteSpace=wrap;html=1;strokeColor=#000000;" vertex="1" parent="1">
          <mxGeometry x="660" y="240" width="80" height="80" as="geometry" />
        </mxCell>
        <mxCell id="o8YfOcNx8l_yTNJHQc2i-119" value="" style="edgeStyle=entityRelationEdgeStyle;fontSize=12;html=1;endArrow=ERoneToMany;startArrow=ERmandOne;entryX=0;entryY=0.75;entryDx=0;entryDy=0;exitX=1;exitY=0.5;exitDx=0;exitDy=0;" edge="1" parent="1" source="o8YfOcNx8l_yTNJHQc2i-90" target="o8YfOcNx8l_yTNJHQc2i-47">
          <mxGeometry width="100" height="100" relative="1" as="geometry">
            <mxPoint x="592.3200000000003" y="300" as="sourcePoint" />
            <mxPoint x="859.9999999999999" y="405.0400000000001" as="targetPoint" />
          </mxGeometry>
        </mxCell>
        <mxCell id="o8YfOcNx8l_yTNJHQc2i-116" value="추천한다" style="rhombus;whiteSpace=wrap;html=1;strokeColor=#000000;" vertex="1" parent="1">
          <mxGeometry x="660" y="410" width="80" height="80" as="geometry" />
        </mxCell>
        <mxCell id="o8YfOcNx8l_yTNJHQc2i-120" value="" style="endArrow=none;html=1;entryX=0.5;entryY=1;entryDx=0;entryDy=0;exitX=0.398;exitY=-0.031;exitDx=0;exitDy=0;exitPerimeter=0;" edge="1" parent="1" source="o8YfOcNx8l_yTNJHQc2i-18" target="o8YfOcNx8l_yTNJHQc2i-113">
          <mxGeometry width="50" height="50" relative="1" as="geometry">
            <mxPoint x="500" y="240" as="sourcePoint" />
            <mxPoint x="550" y="190" as="targetPoint" />
          </mxGeometry>
        </mxCell>
        <mxCell id="o8YfOcNx8l_yTNJHQc2i-121" value="" style="endArrow=none;html=1;entryX=0.377;entryY=1;entryDx=0;entryDy=0;entryPerimeter=0;exitX=1;exitY=0.25;exitDx=0;exitDy=0;" edge="1" parent="1" source="o8YfOcNx8l_yTNJHQc2i-18" target="o8YfOcNx8l_yTNJHQc2i-115">
          <mxGeometry width="50" height="50" relative="1" as="geometry">
            <mxPoint x="580" y="270" as="sourcePoint" />
            <mxPoint x="630" y="220" as="targetPoint" />
          </mxGeometry>
        </mxCell>
        <mxCell id="o8YfOcNx8l_yTNJHQc2i-122" value="" style="endArrow=none;html=1;entryX=0.408;entryY=1.01;entryDx=0;entryDy=0;entryPerimeter=0;exitX=0.5;exitY=0;exitDx=0;exitDy=0;" edge="1" parent="1" source="o8YfOcNx8l_yTNJHQc2i-114" target="o8YfOcNx8l_yTNJHQc2i-90">
          <mxGeometry width="50" height="50" relative="1" as="geometry">
            <mxPoint x="500" y="575" as="sourcePoint" />
            <mxPoint x="550" y="525" as="targetPoint" />
          </mxGeometry>
        </mxCell>
        <mxCell id="o8YfOcNx8l_yTNJHQc2i-123" value="" style="endArrow=none;html=1;exitX=1;exitY=1;exitDx=0;exitDy=0;entryX=0;entryY=0;entryDx=0;entryDy=0;" edge="1" parent="1" source="o8YfOcNx8l_yTNJHQc2i-90" target="o8YfOcNx8l_yTNJHQc2i-28">
          <mxGeometry width="50" height="50" relative="1" as="geometry">
            <mxPoint x="600" y="540" as="sourcePoint" />
            <mxPoint x="650" y="490" as="targetPoint" />
          </mxGeometry>
        </mxCell>
      </root>
    </mxGraphModel>
  </diagram>
</mxfile>
